<?xml version="1.0" encoding="iso-8859-1"?>
<!-- Uploaded to: SVG Repo, www.svgrepo.com, Generator: SVG Repo Mixer Tools -->
<!DOCTYPE svg PUBLIC "-//W3C//DTD SVG 1.1//EN" "http://www.w3.org/Graphics/SVG/1.1/DTD/svg11.dtd">
<svg fill="#000000" version="1.1" id="Capa_1" xmlns="http://www.w3.org/2000/svg" xmlns:xlink="http://www.w3.org/1999/xlink" 
	 width="800px" height="800px" viewBox="0 0 502.265 502.265"
	 xml:space="preserve">
<g>
	<g>
		<path d="M210.571,157.605c6.141,2.332,12.695,3.519,19.261,3.519c15.423,0,30.349-6.722,40.583-18.257
			c10.333-11.646,15.185-27.456,13.22-42.897c-1.928-15.145-10.402-29.01-22.944-37.701c-12.846-8.904-29.284-11.814-44.421-7.919
			c-14.697,3.782-27.373,13.846-34.45,27.261c-7.301,13.844-8.211,30.61-2.465,45.169
			C184.91,140.865,196.414,152.227,210.571,157.605z"/>
		<path d="M265.85,440.904c0.008-0.005,0.01-0.011,0.01-0.017c-0.006,0.01-0.016,0.021-0.022,0.03
			c-0.015,0.021-0.027,0.043-0.041,0.064C265.811,440.956,265.833,440.929,265.85,440.904z"/>
		<path d="M364.256,52.666c-0.3-0.208-0.598-0.415-0.871-0.605C363.633,52.233,363.913,52.427,364.256,52.666z"/>
		<path d="M363.039,51.819c-0.419-0.291-0.721-0.5-0.791-0.55C362.318,51.319,362.569,51.493,363.039,51.819z"/>
		<path d="M362.248,51.27C362.219,51.25,362.225,51.254,362.248,51.27L362.248,51.27z"/>
		<path d="M386.334,72.807l7.967-9.244c2.139-2.482,6.307-3.02,9.307-1.198l83.064,50.349l15.005-26.416
			c1.448-2.549,0.13-5.624-2.942-6.869L408.354,42.85c-3.073-1.244-6.737-0.187-8.188,2.363l-5.392,9.494l-4.473-1.81
			c-8.572-3.469-18.094-3.302-26.047-0.232c-0.004,0.001-0.006,0.002-0.008,0.003c-7.309-4.967-17.267-3.141-22.317,4.131
			c0,0-50.374,76.801-67.649,97.369c-12.889,15.347-25.169,19.631-43.674,17.073c-9.139-1.263-122.367-29.414-122.367-29.414
			c-6.203-1.499-12.636,0.963-16.451,5.777c-11.094-1.42-22.438,3.982-28.029,14.41l-2.137,3.979l-10.188-5.466
			c-2.737-1.467-6.143-0.44-7.611,2.295L0.668,243.258c-1.465,2.735-0.438,6.142,2.297,7.61l28.348,15.208l28.754-88.63
			c1.037-3.204,4.479-4.957,7.682-3.918l11.934,3.872l0.475-1.46l-8.631-4.63l2.137-3.979c3.006-5.604,8.8-8.749,14.758-8.688
			c0.222,2.907,1.219,5.718,2.875,8.111c-2.765,3.053-4.947,6.718-6.298,10.883l-1.513,4.662l-11.935-3.872
			c-3.202-1.039-6.644,0.714-7.681,3.918l-30.567,94.211c-1.041,3.204,0.715,6.643,3.918,7.682l81.201,26.347
			c3.203,1.039,6.643-0.716,7.684-3.918l30.566-94.211c1.037-3.204-0.717-6.644-3.92-7.683l-11.935-3.873l1.514-4.66
			c0.763-2.349,1.212-4.724,1.386-7.083l77.992,28.706c0.699,2.115,6.722,18.409,10.138,35.461
			c2.174,10.85,3.097,21.903,3.724,32.939c0.439,7.738,0.32,15.48,0.232,23.227c-0.092,7.981,1.217,15.791,4.379,23.15
			c-0.271,10.081-0.791,20.16-1.647,30.209c-0.938,10.995-2.662,21.924-4.46,32.819c-2.271,13.767-5.828,19.059-6.066,19.418
			c-4.408,1.667-9.742,1.096-14.307,0.497c-5.449-0.716-10.82-2.003-16.093-3.547c-4.634-1.357-9.203-2.929-13.708-4.665
			c-3.58-1.381-7.066-2.958-10.596-4.456c-1.643-0.698-3.273-1.468-5.08-1.86c-1.855-0.403-3.769-0.533-5.662-0.388
			c-3.749,0.287-7.391,1.656-10.395,3.917c-6.275,4.722-9.178,12.974-7.262,20.583c1.356,5.385,4.985,10.021,9.892,12.624
			c15.744,8.608,32.581,15.997,50.175,19.813c9.526,2.067,19.408,3.084,29.107,1.689c10.078-1.448,19.659-5.674,26.976-12.845
			c1.736-1.702,3.338-3.573,4.781-5.531c0.789-1.297,1.773-2.496,2.598-3.771c1.43-2.206,2.746-4.48,3.965-6.809
			c2.438-4.656,4.523-9.497,6.377-14.413c3.724-9.868,6.604-20.048,9.076-30.294c1.621-6.728,3.066-13.496,4.378-20.291
			c2.739-0.12,5.451-0.438,8.142-0.965c4.866,9.944,9.375,20.071,13.201,30.465c-10.245,3.997-15.259,16.059-10.9,26.155
			c2.947,6.836,6.528,13.367,11.558,18.92c5.468,6.036,12.39,10.722,20.289,12.896c4.323,1.19,8.859,1.593,13.296,0.907
			c8.91-1.396,16.368-8.333,17.957-17.717c3.43-20.206,0.155-40.862-4.486-60.615c-2.519-10.701-5.582-21.275-9-31.724
			c-2.236-6.841-4.558-13.688-7.242-20.369c-0.531-1.325-1.041-2.662-1.608-3.974c0.663-4.44,0.72-8.896,0.352-13.365
			c-0.369-4.467-0.675-8.949-1.136-13.408c-1.09-10.552-2.562-21.09-4.548-31.511c-4.137-21.704-9.954-43.15-18.507-63.556
			c-2.322-5.542-4.818-11.007-7.601-16.335l32.282-60.463l3.634,2.2l-7.965,9.246c-2.139,2.481-1.44,5.968,1.563,7.789l88.295,53.52
			c3.002,1.818,7.171,1.281,9.309-1.2l54.207-62.904c2.14-2.481,1.441-5.969-1.563-7.787l-88.295-53.52
			c-3.002-1.821-7.17-1.283-9.31,1.198l-7.965,9.245l-4.371-2.648c-3.545-2.15-7.428-3.626-11.424-4.47
			c1.119-3.181,1.189-6.583,0.297-9.739c4.488-1.439,9.668-1.391,14.373,0.514l4.474,1.809l-4.568,8.042L386.334,72.807z
			 M130.731,192.474l-1.514,4.662l-34.131-11.075l1.51-4.662c1.002-3.086,2.775-5.704,5.025-7.737l29.814,10.973
			C131.772,187.193,131.578,189.859,130.731,192.474z M374.071,84.807l4.367,2.65l-22.782,26.441l-4.369-2.648
			c-0.509-0.308-0.99-0.633-1.451-0.972l15.213-28.493C368.2,82.137,371.306,83.131,374.071,84.807z"/>
		<path d="M363.385,52.06c-0.125-0.088-0.242-0.169-0.347-0.241C363.147,51.896,363.264,51.976,363.385,52.06z"/>
	</g>
</g>
</svg>