<svg xmlns="http://www.w3.org/2000/svg"  viewBox="0 0 24 24" width="24px" height="24px"><path d="M2.35352,1.64648a.5.5,0,0,0-.707.707L5.96442,6.67145a17.17661,17.17661,0,0,0-4.39508,5.07367.50159.50159,0,0,0,0,.50976c2.27734,3.84668,5.18066,6.27149,8.39843,7.0127A9.04787,9.04787,0,0,0,11.999,19.5a9.73919,9.73919,0,0,0,5.20282-1.59113l4.44464,4.44465a.5.5,0,0,0,.707-.707Zm7.563,8.97712L13.377,14.084A2.49629,2.49629,0,0,1,9.91656,10.6236Zm.27582,7.66937C7.31836,17.63086,4.69141,15.457,2.583,12A15.87171,15.87171,0,0,1,6.67438,7.38141L9.20776,9.91479a3.48174,3.48174,0,0,0,4.878,4.878L16.478,17.185A8.384,8.384,0,0,1,10.19238,18.293ZM12.365,9.53687l-.97534-.97535A3.16633,3.16633,0,0,1,12,8.5,3.50424,3.50424,0,0,1,15.5,12a3.16633,3.16633,0,0,1-.06152.61035l-.97535-.97534A2.49048,2.49048,0,0,0,12.365,9.53687Zm10.06567,2.20825a.50159.50159,0,0,1,0,.50976,18.55114,18.55114,0,0,1-3.23919,4.10846l-.7099-.7099A17.22442,17.22442,0,0,0,21.417,12C18.8584,7.80566,15.52344,5.5,12,5.5a8.21838,8.21838,0,0,0-3.05115.62073L8.1745,5.34637A9.36463,9.36463,0,0,1,12,4.5C15.96191,4.5,19.666,7.07324,22.43066,11.74512Z"/></svg>