<svg xmlns="http://www.w3.org/2000/svg"  viewBox="0 0 24 24" width="24px" height="24px"><path d="M12.00049,4.5H12c-3.96094,0-7.66553,2.57324-10.43018,7.24512a.49936.49936,0,0,0,0,.50976C4.33447,16.92676,8.03906,19.5,12.00049,19.5s7.66553-2.57324,10.43017-7.24512a.50159.50159,0,0,0,0-.50976C19.666,7.07324,15.96191,4.5,12.00049,4.5Zm0,14c-3.52344,0-6.85889-2.30566-9.417-6.5,2.5581-4.19434,5.89355-6.5,9.417-6.5,3.523,0,6.85791,2.30566,9.4165,6.5C18.8584,16.19434,15.52344,18.5,12.00049,18.5ZM12,8.5A3.5,3.5,0,1,0,15.5,12,3.50424,3.50424,0,0,0,12,8.5Zm0,6A2.5,2.5,0,1,1,14.5,12,2.50263,2.50263,0,0,1,12,14.5Z"/></svg>