<svg width="26" height="26" viewBox="0 0 26 26" fill="none" xmlns="http://www.w3.org/2000/svg">
<path d="M3.99494 9.8242C4.67341 6.93181 6.93181 4.6734 9.8242 3.99494V3.99494C11.9131 3.50496 14.087 3.50496 16.1758 3.99494V3.99494C19.0682 4.6734 21.3266 6.93181 22.0051 9.8242V9.8242C22.495 11.9131 22.495 14.0869 22.0051 16.1758V16.1758C21.3266 19.0682 19.0682 21.3266 16.1758 22.0051V22.0051C14.087 22.495 11.9131 22.495 9.8242 22.0051V22.0051C6.93181 21.3266 4.67341 19.0682 3.99494 16.1758V16.1758C3.50496 14.087 3.50496 11.9131 3.99494 9.8242V9.8242Z" stroke="white" stroke-width="2"/>
<path d="M15.3419 11.7766C16.1916 12.3203 16.1916 13.6797 15.3419 14.2234L12.4743 16.0586C11.6246 16.6024 10.5625 15.9227 10.5625 14.8352L10.5625 11.1648C10.5625 10.0773 11.6246 9.39762 12.4743 9.94138L15.3419 11.7766Z" stroke="white" stroke-width="2"/>
</svg>
