<svg width="45" height="45" viewBox="0 0 45 45" fill="none" xmlns="http://www.w3.org/2000/svg">
    <circle cx="20.5" cy="21.5" r="20.5" fill="white" />
    <path
        d="M13.332 12.58C16.5053 11.56 19.7127 11.05 22.954 11.05C26.1953 11.05 28.6887 11.594 30.434 12.682C30.842 13.906 31.046 15.0733 31.046 16.184C31.046 18.7907 29.9693 20.978 27.816 22.746C25.6627 24.4913 22.886 25.7493 19.486 26.52L18.67 34.136L15.27 34.476L13.332 12.58ZM24.484 17.17C24.484 15.4247 23.77 14.1213 22.342 13.26C21.934 13.26 21.4353 13.3393 20.846 13.498L19.724 24.208C21.1973 23.392 22.3533 22.338 23.192 21.046C24.0533 19.754 24.484 18.462 24.484 17.17Z"
        fill="#506BCC" />
</svg>