<svg width="217" height="45" viewBox="0 0 217 45" fill="none" xmlns="http://www.w3.org/2000/svg">
<path d="M69.2074 17.7713V15.8182H82.8438V17.7713H77.1264V34H74.9247V17.7713H69.2074ZM88.115 34.3196C87.2509 34.3196 86.4666 34.1568 85.7623 33.8313C85.058 33.4999 84.4987 33.0234 84.0844 32.402C83.6701 31.7746 83.463 31.017 83.463 30.1293C83.463 29.348 83.6169 28.7147 83.9246 28.2294C84.2324 27.7382 84.6437 27.3535 85.1586 27.0753C85.6736 26.7971 86.2417 26.59 86.8632 26.4538C87.4906 26.3118 88.1209 26.1993 88.7542 26.1165C89.5828 26.0099 90.2545 25.93 90.7694 25.8768C91.2903 25.8176 91.6691 25.7199 91.9058 25.5838C92.1485 25.4477 92.2698 25.2109 92.2698 24.8736V24.8026C92.2698 23.9266 92.0301 23.246 91.5507 22.7607C91.0772 22.2753 90.3581 22.0327 89.3934 22.0327C88.3931 22.0327 87.6089 22.2517 87.0407 22.6896C86.4726 23.1276 86.0731 23.5952 85.8422 24.0923L83.8536 23.3821C84.2087 22.5535 84.6822 21.9084 85.2741 21.4467C85.8718 20.9792 86.5229 20.6536 87.2272 20.4702C87.9374 20.2808 88.6358 20.1861 89.3224 20.1861C89.7603 20.1861 90.2634 20.2393 90.8316 20.3459C91.4057 20.4465 91.9591 20.6566 92.4917 20.9762C93.0303 21.2958 93.4772 21.7782 93.8323 22.4233C94.1874 23.0684 94.365 23.9325 94.365 25.0156V34H92.2698V32.1534H92.1633C92.0212 32.4493 91.7845 32.766 91.453 33.1033C91.1216 33.4407 90.6807 33.7277 90.1302 33.9645C89.5798 34.2012 88.9081 34.3196 88.115 34.3196ZM88.4346 32.4375C89.2632 32.4375 89.9616 32.2747 90.5297 31.9492C91.1038 31.6237 91.5359 31.2035 91.8259 30.6886C92.1218 30.1737 92.2698 29.6321 92.2698 29.0639V27.1463C92.181 27.2528 91.9857 27.3505 91.6839 27.4393C91.3879 27.5221 91.0447 27.5961 90.654 27.6612C90.2693 27.7204 89.8935 27.7737 89.5265 27.821C89.1655 27.8625 88.8725 27.898 88.6476 27.9276C88.1031 27.9986 87.5941 28.114 87.1206 28.2738C86.6531 28.4277 86.2743 28.6615 85.9843 28.9751C85.7002 29.2829 85.5581 29.7031 85.5581 30.2358C85.5581 30.9638 85.8274 31.5142 86.366 31.8871C86.9105 32.254 87.6001 32.4375 88.4346 32.4375ZM100.142 29.0284L100.107 26.4361H100.533L106.499 20.3636H109.091L102.735 26.7912H102.557L100.142 29.0284ZM98.1891 34V15.8182H100.284V34H98.1891ZM106.854 34L101.527 27.2528L103.019 25.7969L109.517 34H106.854ZM111.788 34V20.3636H113.883V34H111.788ZM112.853 18.0909C112.445 18.0909 112.093 17.9518 111.797 17.6737C111.507 17.3955 111.362 17.0611 111.362 16.6705C111.362 16.2798 111.507 15.9454 111.797 15.6673C112.093 15.3891 112.445 15.25 112.853 15.25C113.261 15.25 113.611 15.3891 113.901 15.6673C114.197 15.9454 114.345 16.2798 114.345 16.6705C114.345 17.0611 114.197 17.3955 113.901 17.6737C113.611 17.9518 113.261 18.0909 112.853 18.0909ZM117.383 34V15.8182H124.556C125.935 15.8182 127.11 16.0816 128.081 16.6083C129.051 17.1291 129.791 17.8542 130.3 18.7834C130.815 19.7067 131.073 20.772 131.073 21.9794C131.073 23.1868 130.812 24.2521 130.291 25.1754C129.771 26.0987 129.016 26.8178 128.028 27.3327C127.045 27.8477 125.855 28.1051 124.459 28.1051H119.887V25.0245H123.837C124.577 25.0245 125.187 24.8973 125.666 24.6428C126.151 24.3823 126.512 24.0243 126.749 23.5685C126.992 23.1069 127.113 22.5772 127.113 21.9794C127.113 21.3757 126.992 20.849 126.749 20.3991C126.512 19.9434 126.151 19.5913 125.666 19.3427C125.181 19.0882 124.565 18.9609 123.819 18.9609H121.227V34H117.383ZM139.44 34.2663C138.061 34.2663 136.868 33.9734 135.862 33.3874C134.862 32.7956 134.09 31.9729 133.545 30.9194C133.001 29.86 132.728 28.6319 132.728 27.2351C132.728 25.8265 133.001 24.5954 133.545 23.5419C134.09 22.4825 134.862 21.6598 135.862 21.0739C136.868 20.482 138.061 20.1861 139.44 20.1861C140.819 20.1861 142.009 20.482 143.009 21.0739C144.015 21.6598 144.79 22.4825 145.335 23.5419C145.879 24.5954 146.152 25.8265 146.152 27.2351C146.152 28.6319 145.879 29.86 145.335 30.9194C144.79 31.9729 144.015 32.7956 143.009 33.3874C142.009 33.9734 140.819 34.2663 139.44 34.2663ZM139.458 31.3366C140.085 31.3366 140.609 31.1591 141.029 30.804C141.449 30.4429 141.766 29.9517 141.979 29.3303C142.198 28.7088 142.308 28.0015 142.308 27.2085C142.308 26.4154 142.198 25.7081 141.979 25.0866C141.766 24.4652 141.449 23.974 141.029 23.6129C140.609 23.2519 140.085 23.0714 139.458 23.0714C138.824 23.0714 138.292 23.2519 137.86 23.6129C137.434 23.974 137.111 24.4652 136.892 25.0866C136.679 25.7081 136.572 26.4154 136.572 27.2085C136.572 28.0015 136.679 28.7088 136.892 29.3303C137.111 29.9517 137.434 30.4429 137.86 30.804C138.292 31.1591 138.824 31.3366 139.458 31.3366ZM148.611 39.1136V20.3636H152.339V22.6541H152.508C152.674 22.2872 152.914 21.9143 153.227 21.5355C153.547 21.1508 153.961 20.8312 154.47 20.5767C154.985 20.3163 155.624 20.1861 156.388 20.1861C157.382 20.1861 158.299 20.4465 159.14 20.9673C159.98 21.4822 160.652 22.2605 161.155 23.3022C161.658 24.3379 161.91 25.6371 161.91 27.1996C161.91 28.7206 161.664 30.005 161.173 31.0526C160.688 32.0942 160.025 32.8844 159.184 33.4229C158.35 33.9556 157.415 34.2219 156.379 34.2219C155.645 34.2219 155.021 34.1006 154.506 33.858C153.997 33.6153 153.579 33.3105 153.254 32.9435C152.928 32.5707 152.68 32.1948 152.508 31.8161H152.393V39.1136H148.611ZM152.313 27.1818C152.313 27.9927 152.425 28.6999 152.65 29.3036C152.875 29.9073 153.201 30.3778 153.627 30.7152C154.053 31.0466 154.571 31.2124 155.18 31.2124C155.796 31.2124 156.317 31.0437 156.743 30.7063C157.169 30.363 157.492 29.8896 157.711 29.2859C157.935 28.6763 158.048 27.9749 158.048 27.1818C158.048 26.3946 157.938 25.7022 157.719 25.1044C157.5 24.5066 157.178 24.0391 156.752 23.7017C156.326 23.3643 155.802 23.1957 155.18 23.1957C154.565 23.1957 154.044 23.3584 153.618 23.6839C153.198 24.0095 152.875 24.4711 152.65 25.0689C152.425 25.6667 152.313 26.371 152.313 27.1818ZM173.176 28.1939V20.3636H176.958V34H173.327V31.5231H173.185C172.877 32.3221 172.365 32.9643 171.649 33.4496C170.939 33.9349 170.071 34.1776 169.048 34.1776C168.136 34.1776 167.334 33.9704 166.642 33.5561C165.949 33.1418 165.408 32.5529 165.017 31.7894C164.632 31.0259 164.437 30.1115 164.431 29.0462V20.3636H168.213V28.3714C168.219 29.1764 168.435 29.8126 168.861 30.2802C169.287 30.7478 169.858 30.9815 170.575 30.9815C171.03 30.9815 171.456 30.878 171.853 30.6708C172.25 30.4577 172.569 30.1441 172.812 29.7298C173.06 29.3155 173.182 28.8035 173.176 28.1939ZM179.983 39.1136V20.3636H183.712V22.6541H183.88C184.046 22.2872 184.286 21.9143 184.599 21.5355C184.919 21.1508 185.333 20.8312 185.842 20.5767C186.357 20.3163 186.996 20.1861 187.76 20.1861C188.754 20.1861 189.672 20.4465 190.512 20.9673C191.352 21.4822 192.024 22.2605 192.527 23.3022C193.03 24.3379 193.282 25.6371 193.282 27.1996C193.282 28.7206 193.036 30.005 192.545 31.0526C192.06 32.0942 191.397 32.8844 190.556 33.4229C189.722 33.9556 188.787 34.2219 187.751 34.2219C187.017 34.2219 186.393 34.1006 185.878 33.858C185.369 33.6153 184.951 33.3105 184.626 32.9435C184.3 32.5707 184.052 32.1948 183.88 31.8161H183.765V39.1136H179.983ZM183.685 27.1818C183.685 27.9927 183.797 28.6999 184.022 29.3036C184.247 29.9073 184.573 30.3778 184.999 30.7152C185.425 31.0466 185.943 31.2124 186.552 31.2124C187.168 31.2124 187.689 31.0437 188.115 30.7063C188.541 30.363 188.864 29.8896 189.083 29.2859C189.308 28.6763 189.42 27.9749 189.42 27.1818C189.42 26.3946 189.311 25.7022 189.092 25.1044C188.873 24.5066 188.55 24.0391 188.124 23.7017C187.698 23.3643 187.174 23.1957 186.552 23.1957C185.937 23.1957 185.416 23.3584 184.99 23.6839C184.57 24.0095 184.247 24.4711 184.022 25.0689C183.797 25.6667 183.685 26.371 183.685 27.1818ZM207.149 24.2521L203.687 24.4652C203.628 24.1693 203.5 23.9029 203.305 23.6662C203.11 23.4235 202.852 23.2312 202.533 23.0891C202.219 22.9412 201.843 22.8672 201.405 22.8672C200.819 22.8672 200.325 22.9915 199.922 23.2401C199.52 23.4827 199.319 23.8082 199.319 24.2166C199.319 24.5421 199.449 24.8174 199.709 25.0423C199.97 25.2672 200.417 25.4477 201.05 25.5838L203.518 26.081C204.844 26.3532 205.832 26.7912 206.483 27.3949C207.134 27.9986 207.46 28.7917 207.46 29.7741C207.46 30.6679 207.196 31.4521 206.67 32.1268C206.149 32.8015 205.433 33.3282 204.521 33.707C203.616 34.0799 202.571 34.2663 201.387 34.2663C199.582 34.2663 198.144 33.8905 197.073 33.1388C196.007 32.3813 195.383 31.3514 195.199 30.0494L198.919 29.854C199.032 30.4045 199.304 30.8247 199.736 31.1147C200.168 31.3988 200.722 31.5408 201.396 31.5408C202.059 31.5408 202.592 31.4136 202.994 31.1591C203.403 30.8987 203.61 30.5643 203.616 30.1559C203.61 29.8126 203.465 29.5315 203.181 29.3125C202.897 29.0876 202.459 28.916 201.867 28.7976L199.505 28.3271C198.174 28.0607 197.182 27.5991 196.531 26.9421C195.886 26.2852 195.563 25.4477 195.563 24.4297C195.563 23.5537 195.8 22.7991 196.274 22.1658C196.753 21.5326 197.425 21.0443 198.289 20.701C199.159 20.3577 200.177 20.1861 201.343 20.1861C203.065 20.1861 204.421 20.5501 205.409 21.2781C206.403 22.006 206.983 22.9974 207.149 24.2521Z" fill="white"/>
<circle cx="20.5" cy="21.5" r="20.5" fill="white"/>
<path d="M13.332 12.58C16.5053 11.56 19.7127 11.05 22.954 11.05C26.1953 11.05 28.6887 11.594 30.434 12.682C30.842 13.906 31.046 15.0733 31.046 16.184C31.046 18.7907 29.9693 20.978 27.816 22.746C25.6627 24.4913 22.886 25.7493 19.486 26.52L18.67 34.136L15.27 34.476L13.332 12.58ZM24.484 17.17C24.484 15.4247 23.77 14.1213 22.342 13.26C21.934 13.26 21.4353 13.3393 20.846 13.498L19.724 24.208C21.1973 23.392 22.3533 22.338 23.192 21.046C24.0533 19.754 24.484 18.462 24.484 17.17Z" fill="#506BCC"/>
</svg>
